<svg width="596" height="99" viewBox="0 0 596 99" fill="none" xmlns="http://www.w3.org/2000/svg">
  <g filter="url(#filter0_f_33565_13017)">
    <path d="M405.124 18V6.48H407.052V11.328H412.508V6.48H414.428V18H412.508V13.136H407.052V18H405.124ZM417.311 16V14.024H419.287V16H417.311ZM417.327 10.456V8.48H419.303V10.456H417.327ZM425.942 18L429.91 8.304H424.878V6.48H431.974V8.304L428.022 18H425.942ZM435.89 18V8.584L433.73 9.904V7.776L435.89 6.48H437.858V18H435.89ZM443.145 12C442.617 12 442.134 11.872 441.697 11.616C441.26 11.3547 440.91 11.008 440.649 10.576C440.393 10.1387 440.265 9.65333 440.265 9.12C440.265 8.59733 440.398 8.11733 440.665 7.68C440.932 7.24267 441.284 6.89333 441.721 6.632C442.158 6.37067 442.633 6.24 443.145 6.24C443.673 6.24 444.153 6.37067 444.585 6.632C445.022 6.888 445.372 7.23467 445.633 7.672C445.894 8.104 446.025 8.58667 446.025 9.12C446.025 9.65333 445.894 10.1387 445.633 10.576C445.372 11.008 445.022 11.3547 444.585 11.616C444.153 11.872 443.673 12 443.145 12ZM443.145 10.352C443.369 10.352 443.574 10.296 443.761 10.184C443.948 10.072 444.097 9.92267 444.209 9.736C444.321 9.54933 444.377 9.344 444.377 9.12C444.377 8.896 444.321 8.69067 444.209 8.504C444.097 8.31733 443.948 8.168 443.761 8.056C443.574 7.944 443.369 7.888 443.145 7.888C442.921 7.888 442.716 7.944 442.529 8.056C442.342 8.168 442.193 8.31733 442.081 8.504C441.969 8.69067 441.913 8.896 441.913 9.12C441.913 9.344 441.969 9.54933 442.081 9.736C442.193 9.92267 442.342 10.072 442.529 10.184C442.716 10.296 442.921 10.352 443.145 10.352Z" fill="white"/>
  </g>
  <circle cx="425.496" cy="36" r="3.5" fill="white" stroke="white"/>
  <g filter="url(#filter1_f_33565_13017)">
    <path d="M152.331 44V32.48H154.259V42.192H159.347V44H152.331ZM161.342 42V40.024H163.318V42H161.342ZM161.358 36.456V34.48H163.334V36.456H161.358ZM173.374 44.24C172.622 44.24 171.944 44.064 171.342 43.712C170.744 43.3547 170.27 42.8613 169.918 42.232C169.566 41.6027 169.39 40.88 169.39 40.064V36.56C169.39 35.6853 169.563 34.9253 169.91 34.28C170.262 33.6347 170.752 33.136 171.382 32.784C172.016 32.432 172.752 32.256 173.59 32.256C174.171 32.256 174.723 32.3547 175.246 32.552C175.768 32.744 176.232 33.0533 176.638 33.48L175.246 34.832C175.043 34.592 174.795 34.4027 174.502 34.264C174.214 34.1253 173.91 34.056 173.59 34.056C173.142 34.056 172.75 34.1627 172.414 34.376C172.078 34.584 171.816 34.8587 171.63 35.2C171.448 35.5413 171.358 35.9067 171.358 36.296V38.208L171.006 37.824C171.336 37.44 171.734 37.1413 172.198 36.928C172.662 36.7093 173.147 36.6 173.654 36.6C174.379 36.6 175.019 36.7653 175.574 37.096C176.128 37.4213 176.566 37.8693 176.886 38.44C177.206 39.0053 177.366 39.6507 177.366 40.376C177.366 41.096 177.182 41.7493 176.814 42.336C176.451 42.9173 175.968 43.3813 175.366 43.728C174.763 44.0693 174.099 44.24 173.374 44.24ZM173.374 42.392C173.747 42.392 174.088 42.304 174.398 42.128C174.707 41.9467 174.952 41.704 175.134 41.4C175.32 41.0907 175.414 40.7493 175.414 40.376C175.414 40.0027 175.323 39.6613 175.142 39.352C174.96 39.0427 174.715 38.7973 174.406 38.616C174.102 38.4293 173.763 38.336 173.39 38.336C173.016 38.336 172.675 38.4293 172.366 38.616C172.056 38.7973 171.811 39.0427 171.63 39.352C171.448 39.6613 171.358 40.0027 171.358 40.376C171.358 40.7387 171.446 41.0747 171.622 41.384C171.803 41.688 172.046 41.9333 172.35 42.12C172.659 42.3013 173 42.392 173.374 42.392ZM179.911 44L183.879 34.304H178.847V32.48H185.943V34.304L181.991 44H179.911ZM190.098 38C189.57 38 189.088 37.872 188.65 37.616C188.213 37.3547 187.864 37.008 187.602 36.576C187.346 36.1387 187.218 35.6533 187.218 35.12C187.218 34.5973 187.352 34.1173 187.618 33.68C187.885 33.2427 188.237 32.8933 188.674 32.632C189.112 32.3707 189.586 32.24 190.098 32.24C190.626 32.24 191.106 32.3707 191.538 32.632C191.976 32.888 192.325 33.2347 192.586 33.672C192.848 34.104 192.978 34.5867 192.978 35.12C192.978 35.6533 192.848 36.1387 192.586 36.576C192.325 37.008 191.976 37.3547 191.538 37.616C191.106 37.872 190.626 38 190.098 38ZM190.098 36.352C190.322 36.352 190.528 36.296 190.714 36.184C190.901 36.072 191.05 35.9227 191.162 35.736C191.274 35.5493 191.33 35.344 191.33 35.12C191.33 34.896 191.274 34.6907 191.162 34.504C191.05 34.3173 190.901 34.168 190.714 34.056C190.528 33.944 190.322 33.888 190.098 33.888C189.874 33.888 189.669 33.944 189.482 34.056C189.296 34.168 189.146 34.3173 189.034 34.504C188.922 34.6907 188.866 34.896 188.866 35.12C188.866 35.344 188.922 35.5493 189.034 35.736C189.146 35.9227 189.296 36.072 189.482 36.184C189.669 36.296 189.874 36.352 190.098 36.352Z" fill="white"/>
  </g>
  <circle cx="172.496" cy="62" r="3.5" fill="white" stroke="white"/>
  <path d="M86.7855 53L0 55V99H596V55.7858L511.131 51.402L436.868 37.9248C429.877 36.6562 422.697 36.8919 415.805 38.6162L355.311 53.7507C346.079 56.0602 336.566 57.0403 327.057 56.6613L256.524 53.8495L171.191 60.3468C165.125 60.8087 159.029 60.716 152.979 60.0698L86.7855 53Z" fill="url(#paint0_linear_33565_13017)"/>
  <path d="M1.91491 55.1293L79.0507 52.949C84.0168 52.8086 88.9865 53.0385 93.9184 53.6368L158.983 61.5295C167.035 62.5062 175.175 62.4997 183.226 61.5101L246.45 53.7384C252.604 52.982 258.815 52.7995 265.002 53.1933L324.302 56.9674C334.897 57.6417 345.532 56.6245 355.807 53.9542L414.135 38.7955C421.219 36.9543 428.622 36.6911 435.819 38.0244L502.478 50.3732C507.144 51.2377 511.867 51.7689 516.609 51.9628L594.082 55.1293" stroke="white" stroke-width="2" stroke-linecap="round"/>
  <defs>
    <filter id="filter0_f_33565_13017" x="399.125" y="0.23999" width="52.8984" height="23.76" filterUnits="userSpaceOnUse" color-interpolation-filters="sRGB">
      <feFlood flood-opacity="0" result="BackgroundImageFix"/>
      <feBlend mode="normal" in="SourceGraphic" in2="BackgroundImageFix" result="shape"/>
      <feGaussianBlur stdDeviation="3" result="effect1_foregroundBlur_33565_13017"/>
    </filter>
    <filter id="filter1_f_33565_13017" x="146.332" y="26.24" width="52.6445" height="24" filterUnits="userSpaceOnUse" color-interpolation-filters="sRGB">
      <feFlood flood-opacity="0" result="BackgroundImageFix"/>
      <feBlend mode="normal" in="SourceGraphic" in2="BackgroundImageFix" result="shape"/>
      <feGaussianBlur stdDeviation="3" result="effect1_foregroundBlur_33565_13017"/>
    </filter>
    <linearGradient id="paint0_linear_33565_13017" x1="297.527" y1="44" x2="297.527" y2="99" gradientUnits="userSpaceOnUse">
      <stop stop-color="white" stop-opacity="0.2"/>
      <stop offset="1" stop-color="white" stop-opacity="0"/>
    </linearGradient>
  </defs>
</svg>
